<svg width="158" height="38" viewBox="0 0 158 38" fill="none" xmlns="http://www.w3.org/2000/svg">
<path d="M86.3133 28.793H91.3901V14.5201L100.248 13.9284V10.2437H77.4557V13.9284L86.3133 14.5201V28.793ZM49.7112 28.793L51.7969 24.5165H39.4956V10.2437H34.2236V28.793H49.7112ZM69.3169 21.6207H62.4829L65.9354 14.1884L69.3169 21.6207ZM115.158 21.6207H108.324L111.777 14.1884L115.158 21.6207ZM138.332 24.2565C138.527 24.911 139.308 25.3772 140.152 25.3772H145.424L149.329 14.4574L153.048 28.793H158L153.9 12.3505C153.509 10.7099 152.595 10.2437 151.104 10.2437H145.956L142.246 21.1007L139.317 11.8933C138.927 10.7098 138.208 10.2437 137.036 10.2437H131.241L126.483 28.793H131.498L135.146 14.4574L138.332 24.2565ZM118.602 28.793H124.14L115.416 11.4271C114.963 10.5754 114.502 10.2437 113.463 10.2437H108.644L99.4578 28.793H105.058L106.682 25.3772H116.969L118.602 28.793ZM72.6985 28.793H78.2988L69.5743 11.4271C69.1217 10.5754 68.6602 10.2437 67.6217 10.2437H62.8024L53.6252 28.793H59.2256L60.8498 25.3772H71.1364L72.6985 28.793Z" fill="white"/>
<path d="M1.6952 10.1717L8.7334 12.7448C10.5706 12.0724 12.5054 11.3641 14.2894 10.7097C9.08842 8.81797 2.88451 6.54973 0.86979 5.79664C0.390518 5.61734 0 5.4201 0 5.94009V7.98419C0 9.14072 0.603528 9.75933 1.6952 10.1717ZM0.00887541 15.2641C0.0355016 15.7571 0.239636 15.8199 0.763285 15.6675C1.0118 15.5778 1.38456 15.4434 1.85496 15.2641C1.97034 15.2192 2.0946 15.1744 2.21885 15.1296C3.00876 14.8427 4.02056 14.4661 5.15661 14.0537C3.30165 13.3724 1.57982 12.7448 0.639029 12.3951C0.221885 12.2427 0 12.3503 0 12.8344V14.771V15.2641H0.00887541ZM17.8573 16.0799C19.6857 15.4075 21.0525 14.9054 21.2921 14.8248C22.6323 14.3317 22.8542 13.8565 22.2684 13.6413C22.295 13.6503 22.3216 13.6593 22.3483 13.6772C22.295 13.6503 22.2329 13.6234 22.1708 13.6055C21.9755 13.5337 21.1146 13.22 19.8454 12.7538C18.3898 13.2917 16.3574 14.0268 14.2894 14.7889L17.8573 16.0799ZM17.8396 9.40968L7.13583 5.57251C6.04415 5.1601 5.44062 4.5415 5.44062 3.38497V1.3319C5.44062 0.81191 5.83114 1.00915 6.31041 1.18846C9.86945 2.51533 21.2122 6.57663 22.1708 6.92628C22.295 6.97111 22.3927 7.01593 22.4725 7.07869C22.792 7.32075 22.437 7.73316 21.2921 8.15453C21.0791 8.22625 19.7389 8.71935 17.8396 9.40968Z" fill="#ED1650"/>
<path d="M22.2685 6.97119C22.8898 7.18636 22.6324 7.66152 21.2922 8.15462C20.5911 8.40565 7.18031 13.3097 2.22783 15.1207C2.0947 15.1655 1.97045 15.2103 1.85507 15.2552C1.38467 15.4255 1.0119 15.56 0.763391 15.6586C0.239742 15.82 0.0356076 15.7483 0.0089814 15.2552C0.0089814 15.56 0.000105977 16.1876 0.53263 16.3848L4.89933 17.9896C4.89933 17.9896 5.20997 18.0882 5.50286 17.9896C5.90225 17.8462 22.0111 11.947 22.0111 11.947C22.801 11.6511 22.8454 10.9877 22.8454 9.06012C22.8543 7.25808 22.8543 7.17739 22.2685 6.97119ZM14.254 25.6102C14.254 24.7584 14.3428 24.0412 13.5972 24.3102L5.36973 27.3225V31.348L13.4108 28.4253C14.2008 28.1294 14.254 27.5736 14.254 26.7219V25.6102ZM9.2394 34.0914C9.2394 33.2397 9.32816 32.5135 8.58262 32.7824L5.36973 33.9659V38.0003L8.39624 36.8975C9.18615 36.6106 9.23053 36.0458 9.23053 35.1941V34.0914H9.2394ZM22.02 18.6172L5.36973 24.7136V20.6523C5.36973 20.6523 20.4313 15.1476 21.2922 14.8248C22.6324 14.3317 22.8543 13.8566 22.2685 13.6414C22.872 13.8566 22.8543 13.9283 22.8543 15.7303C22.8543 17.6489 22.8099 18.3213 22.02 18.6172Z" fill="white"/>
</svg>
