<svg width="40" height="60" viewBox="0 0 40 60" fill="none" xmlns="http://www.w3.org/2000/svg">
<g clip-path="url(#clip0_127_2431)">
<path d="M39.513 0.0793457H0.381592V59.931H39.513V0.0793457Z" fill="#C4D600"/>
<path d="M26.133 32.3259C26.133 31.2516 26.9861 30.3807 28.0419 30.3807C29.0936 30.3807 29.9488 31.2516 29.9488 32.3259C29.9488 33.4013 29.0936 34.2733 28.0419 34.2733C26.9861 34.2733 26.133 33.4013 26.133 32.3259ZM11.7626 25.5858H18.0859L18.4665 23.7887L20.4041 14.175C20.9995 11.4537 21.5488 9.08286 23.5836 7.09587C24.9708 5.72114 26.7836 4.94199 28.7161 4.93469C28.7161 4.93469 29.4731 4.94199 29.9488 5.00875L29.8087 5.65439C29.8087 5.65439 28.7703 5.50419 28.134 5.65439C27.3043 5.85674 26.8235 6.20929 26.2475 6.79339C25.1887 7.87189 24.8081 9.51363 24.133 12.4498L21.7657 23.8773L21.4087 25.5869H28.444L28.1769 26.5684H21.201L17.156 45.8375C16.5636 48.5556 16.0102 50.9285 13.9805 52.9166C12.58 54.2955 10.7601 55.0757 8.81224 55.0757L8.15137 55.0611L8.26492 54.4311C8.4685 54.4373 8.69561 54.4311 8.87669 54.4039C9.94574 54.2475 10.6854 53.8741 11.3125 53.0595C12.313 51.7515 12.7509 50.4957 13.4301 47.5606L17.8782 26.5663H11.4977L11.7626 25.5858Z" fill="white"/>
</g>
<defs>
<clipPath id="clip0_127_2431">
<rect width="40" height="60" fill="white"/>
</clipPath>
</defs>
</svg>
